<svg version="1.0" xmlns="http://www.w3.org/2000/svg" width="512" height="512" viewBox="0 0 512 512">
    <g transform="translate(0,512) scale(0.1,-0.1)" fill="#787878" stroke="none">
        <path d="M1090 5114 c-96 -15 -154 -29 -218 -55 -197 -78 -354 -232 -438 -429 -68 -157 -64 -36 -64 -2070 0 -2034 -4 -1913 64 -2070 84 -197 242 -351 438 -429 135 -54 159 -56 603 -56 407 0 410 0 452 23 24 12 55 41 70 64 24 35 28 52 28 108 0 56 -4 73 -28 108 -15 23 -46 52 -70 64 -41 23 -50 23 -452 28 l-410 5 -67 32 c-119 56 -204 165 -228 292 -14 74 -14 3588 0 3662 24 127 109 236 228 292 l67 32 1315 3 1315 2 61 -21 c114 -40 198 -122 246 -239 23 -55 23 -57 28 -745 6 -766 2 -725 72 -779 98 -74 238 -44 295 63 l23 44 0 679 c0 750 -1 762 -64 908 -111 261 -348 441 -629 479 -73 10 -2572 14 -2637 5z"/>
        <path d="M1310 3908 c-83 -23 -140 -100 -140 -188 0 -93 59 -167 150 -190 32 -8 351 -10 1100 -8 l1055 3 42 23 c24 12 55 41 70 64 24 35 28 52 28 108 0 56 -4 73 -28 108 -15 23 -46 52 -70 64 l-42 23 -1065 2 c-688 1 -1077 -2 -1100 -9z"/>
        <path d="M1310 3108 c-83 -23 -140 -100 -140 -188 0 -93 59 -167 150 -190 32 -8 351 -10 1100 -8 l1055 3 42 23 c24 12 55 41 70 64 24 35 28 52 28 108 0 56 -4 73 -28 108 -15 23 -46 52 -70 64 l-42 23 -1065 2 c-688 1 -1077 -2 -1100 -9z"/>
        <path d="M1310 2308 c-83 -23 -140 -100 -140 -188 0 -90 58 -165 145 -189 56 -15 1294 -15 1350 0 87 24 145 99 145 189 0 90 -58 165 -145 189 -52 14 -1305 14 -1355 -1z"/>
        <path d="M4269 2390 c-75 -12 -160 -43 -228 -82 -38 -23 -233 -209 -634 -607 -318 -316 -586 -589 -597 -605 -28 -47 -270 -851 -270 -900 0 -55 36 -125 79 -153 58 -39 106 -47 176 -29 164 41 794 218 826 232 24 10 243 223 632 612 512 514 599 605 625 657 56 114 67 161 67 285 0 125 -11 172 -68 285 -44 90 -162 203 -257 247 -117 55 -239 75 -351 58z m182 -413 c124 -66 139 -243 30 -341 l-22 -20 -144 144 -145 144 27 28 c66 69 172 88 254 45z m-419 -494 c76 -76 138 -142 138 -148 0 -10 -409 -419 -635 -636 l-110 -105 -193 -53 c-107 -29 -195 -51 -198 -49 -2 2 23 91 55 197 l59 194 368 368 c203 203 371 369 374 369 3 0 67 -62 142 -137z"/>
    </g>
</svg>
